<svg id="圖層_4" data-name="圖層 4" xmlns="http://www.w3.org/2000/svg" viewBox="0 0 411.39 218.78"><defs><style>.cls-1{fill:#333;}.cls-2{fill:gray;}.cls-3{fill:#fff;}</style></defs><title>logo</title><path class="cls-1" d="M329,293.76l-41.12,4.33-10.13,1.07-2.31.24-29.67,73.22,73.56-30.37c2.45-1.41,21.89-23.41,18-37.64C336.28,300.77,333.3,295.67,329,293.76Z" transform="translate(-239.56 -206.25)"/><path class="cls-2" d="M419.57,301c-3.15-18.46-14.31-34.39-33.15-47.36C368.71,241.49,350.75,237.23,333,241c-33.44,7.13-55,41-56,42.64-3.83,5-5.14,9.27-3.89,12.6a6.82,6.82,0,0,0,.54,1.11L245,367.91c-13.35,24.84,3.22,50.87,3.39,51.13l.53.82,14.31-5.38,144.2-58C412.86,347.25,423.68,325.11,419.57,301ZM275.47,299.4l2.31-.24,10.13-1.07L329,293.76c4.27,1.91,7.25,7,8.3,10.84,3.92,14.24-15.52,36.23-18,37.64l-73.56,30.37,29.67-73.22C270.31,312.13,275.34,299.37,275.47,299.4Z" transform="translate(-239.56 -206.25)"/><path class="cls-3" d="M635.46,207.6l-7.78,0a3.3,3.3,0,0,0-3.23,3.35v.78a3.34,3.34,0,0,0,2.5,3.28,3.06,3.06,0,0,0,.71.09l7.78,0a3,3,0,0,0,.44,0,3.32,3.32,0,0,0,2.79-3.31V211A3.3,3.3,0,0,0,635.46,207.6Z" transform="translate(-239.56 -206.25)"/><path class="cls-3" d="M631.51,237.22h-3.31l-23.27,0a3.52,3.52,0,0,0-3.29,3.31v.78a3.58,3.58,0,0,0,3.74,3.37l26.1.08a3.59,3.59,0,0,0,3.77-3.35v-.78A3.58,3.58,0,0,0,631.51,237.22Z" transform="translate(-239.56 -206.25)"/><path class="cls-3" d="M602.69,237.18l21.56,0h.13l-21.26-.07A3.52,3.52,0,0,0,602.69,237.18Z" transform="translate(-239.56 -206.25)"/><path class="cls-3" d="M647.08,207.67h-.61a3.83,3.83,0,0,0-3.9,3.74h0a3.83,3.83,0,0,0,3.87,3.77h.61a3.76,3.76,0,1,0,0-7.51Z" transform="translate(-239.56 -206.25)"/><path class="cls-3" d="M570.29,222.47h-.61a3.83,3.83,0,0,0-3.9,3.74h0a3.83,3.83,0,0,0,3.87,3.77h.61a3.76,3.76,0,1,0,0-7.51Z" transform="translate(-239.56 -206.25)"/><path class="cls-3" d="M617.76,222.49l-13.17,0a3.69,3.69,0,0,0-3.93,3.35v.78a3.47,3.47,0,0,0,2.79,3.22l.32.05.48.08.11,0h.31l10,0h3.1a3.69,3.69,0,0,0,3.93-3.35v-.78A3.67,3.67,0,0,0,617.76,222.49Z" transform="translate(-239.56 -206.25)"/><path class="cls-3" d="M592.69,222.53a2.85,2.85,0,0,0-.39,0l-10.53,0a2.89,2.89,0,0,0-.57.06,3.31,3.31,0,0,0-2.57,3.29v.78a3.34,3.34,0,0,0,2.23,3.22l.26.05.23,0,.15,0,.09,0h.25l8,0h2.48a2.9,2.9,0,0,0,.65-.07,3.33,3.33,0,0,0,2.5-3.28v-.78A3.29,3.29,0,0,0,592.69,222.53Z" transform="translate(-239.56 -206.25)"/><path class="cls-3" d="M554.09,229.72a3.65,3.65,0,0,1-.4,0h-6.75l.19,0Z" transform="translate(-239.56 -206.25)"/><path class="cls-3" d="M596.17,243.78a3.41,3.41,0,0,1-.32.32A3.52,3.52,0,0,0,596.17,243.78Z" transform="translate(-239.56 -206.25)"/><path class="cls-3" d="M595.73,244.2a3.32,3.32,0,0,1-.36.25A3.51,3.51,0,0,0,595.73,244.2Z" transform="translate(-239.56 -206.25)"/><path class="cls-3" d="M597,241.46a3.54,3.54,0,0,1-.81,2.25,3.47,3.47,0,0,0,.83-2.23v-.82a3.5,3.5,0,0,0-.32-1.45,3.6,3.6,0,0,1,.3,1.44Z" transform="translate(-239.56 -206.25)"/><path class="cls-3" d="M596.74,239.21a3.34,3.34,0,0,0-2.44-2l-.34,0-.21,0h0l-8,0a3.41,3.41,0,0,0-3.31,3.47v.81a3.46,3.46,0,0,0,2.49,3.38l.07,0a3.1,3.1,0,0,0,.73.1l8,0a3.08,3.08,0,0,0,.45,0,3.13,3.13,0,0,0,.42-.1h.09a3.47,3.47,0,0,0,.59-.27l.1-.06a3.32,3.32,0,0,0,.36-.25l.12-.1a3.41,3.41,0,0,0,.32-.32l.06-.07a3.54,3.54,0,0,0,.81-2.25v-.81A3.6,3.6,0,0,0,596.74,239.21Z" transform="translate(-239.56 -206.25)"/><path class="cls-3" d="M620.08,209.52a3.34,3.34,0,0,0-2.44-2l-.34,0-.21,0h0l-8,0a3.41,3.41,0,0,0-3.31,3.47v.81a3.46,3.46,0,0,0,2.49,3.38l.07,0a3.1,3.1,0,0,0,.73.1l8,0a3.08,3.08,0,0,0,.45,0,3.13,3.13,0,0,0,.42-.1H618a3.47,3.47,0,0,0,.59-.27l.1-.06a3.32,3.32,0,0,0,.36-.25l.12-.1a3.41,3.41,0,0,0,.32-.32l.06-.07a3.54,3.54,0,0,0,.81-2.25V211A3.6,3.6,0,0,0,620.08,209.52Z" transform="translate(-239.56 -206.25)"/><path class="cls-3" d="M388.36,368.5h-7.84a3.83,3.83,0,0,0,0,7.66h7.84a3.83,3.83,0,1,0,0-7.66Z" transform="translate(-239.56 -206.25)"/><path class="cls-3" d="M360.61,383.82h-9.23a3.83,3.83,0,0,0,0,7.66h9.23a3.83,3.83,0,1,0,0-7.66Z" transform="translate(-239.56 -206.25)"/><path class="cls-3" d="M343.61,399.15H317.33a3.83,3.83,0,0,0,0,7.66h26.28a3.83,3.83,0,1,0,0-7.66Z" transform="translate(-239.56 -206.25)"/><path class="cls-3" d="M374.86,383.82h-1a3.83,3.83,0,0,0,0,7.66h1a3.83,3.83,0,1,0,0-7.66Z" transform="translate(-239.56 -206.25)"/><path class="cls-3" d="M319.81,383.82h17.49a3.79,3.79,0,0,1,1.52.32l.8-.32H319.81Z" transform="translate(-239.56 -206.25)"/><path class="cls-3" d="M339.81,384.14a3.79,3.79,0,0,0-1.52-.32H320.81a3.73,3.73,0,0,0-.43,0,3.82,3.82,0,0,0,.43,7.62h17.49a3.83,3.83,0,0,0,1.52-7.34Z" transform="translate(-239.56 -206.25)"/><path class="cls-3" d="M597.53,207.54l-8.4,0-23.42-.68h0a1353.56,1353.56,0,0,0-166.9,5.35c-39.85,3.88-72.44,16.92-96.88,38.74-21.21,18.94-28.67,38-30,41.68a5.73,5.73,0,0,0,.63,5.06c.68,1,1.92.9,2.86,1.73l2.31-.24,10.13-1.07L329,293.76c4.27,1.91,7.25,7,8.3,10.84,3.92,14.24-15.52,36.23-18,37.64l-73.56,30.37.16-.4-3.81,1.58-.14.06,0,.14c-7.64,28.3,5.14,44.24,6.62,46l.14.17,33.34-13.32h19.1a3.83,3.83,0,0,0,.06-7.66H272.57a3.59,3.59,0,0,1-3.58-3.58v-.51a3.59,3.59,0,0,1,3.58-3.58h34.11a3.84,3.84,0,0,0,3.83-3.83,3.8,3.8,0,0,0-.09-.81v0a3.74,3.74,0,0,0-.5-1.2c-.06-.09-.13-.18-.19-.27l-.18-.21a3.84,3.84,0,0,0-1-.82l-.08,0a3.77,3.77,0,0,0-1.43-.42l0,0h-7a3.59,3.59,0,0,1-3.58-3.58v-.51a3.59,3.59,0,0,1,3.58-3.58h38l.45-.19.67-.28a3.82,3.82,0,0,0-1.78-7.2H352a3.84,3.84,0,0,0-3.83,3.83,3.77,3.77,0,0,0,.39,1.64,3.83,3.83,0,0,0,3.31,2.17H366a3.83,3.83,0,1,0,0-7.66h-6.2c23.71-38.75,30.62-65.85,20.5-80.59-10.67-15.55-37.37-11.81-42.7-10.88,13.77-13.92,59.5-23.87,132.45-28.81,36.2-2.45,71.36-3.19,94.93-3.38a2.86,2.86,0,0,0,.55.07l8,0a3,3,0,0,0,.45,0,3.08,3.08,0,0,0,.42-.1,3.49,3.49,0,0,0,2.44-3.37v-.82a3.5,3.5,0,0,0-2.57-3.46,3.05,3.05,0,0,0-.72-.1l-8,0a3,3,0,0,0-.55.06l-5.81,0a3.54,3.54,0,0,0-.59.06l-24.12,0a3.53,3.53,0,0,1-3.57-3.47v-.49a3.53,3.53,0,0,1,3.59-3.45l12.45,0h0l-.26-.05h0l.26.05h6.79a3.62,3.62,0,0,0,.4,0h4.61a3.33,3.33,0,0,0,2.5-3.28v-.78h0v0a3.31,3.31,0,0,0-2.73-3.36H548.31a3.51,3.51,0,0,1-3.36-3.45v-.49a3.53,3.53,0,0,1,3.59-3.45l19.12,0a3.57,3.57,0,0,0,.7.07l8.4,0a3.55,3.55,0,0,0,.75-.08l11.88,0,8.88,0A3.4,3.4,0,0,0,601,211.7v-.78A3.43,3.43,0,0,0,597.53,207.54Z" transform="translate(-239.56 -206.25)"/><path class="cls-3" d="M605.73,280.86l.61,0a3.83,3.83,0,0,0,3.74-3.89h0a3.83,3.83,0,0,0-4-3.61l-.61,0a3.76,3.76,0,1,0,.28,7.5Z" transform="translate(-239.56 -206.25)"/><path class="cls-3" d="M597.23,277a3.31,3.31,0,0,0-2.67-3.21,2.89,2.89,0,0,0-.57,0l-10.52.38a2.85,2.85,0,0,0-.39.06,2.94,2.94,0,0,0-.61.18,3.34,3.34,0,0,0-2,3.24l0,.78a3.33,3.33,0,0,0,2.6,3.2,2.9,2.9,0,0,0,.65.05l2.51-.09h0l.72,0,7.24-.26.15,0h.1l.09,0,.15,0,.23-.06.26-.06a3.34,3.34,0,0,0,2.12-3.29Z" transform="translate(-239.56 -206.25)"/><path class="cls-3" d="M623.79,307a3.67,3.67,0,0,0-4-3.25l-13.16.39a3.69,3.69,0,0,0-3.82,3.48l0,.78a3.47,3.47,0,0,0,2.89,3.12l.32,0,.48.06h.42l10-.3h0l3.14-.09a3.69,3.69,0,0,0,3.82-3.48Z" transform="translate(-239.56 -206.25)"/><path class="cls-3" d="M557.89,297.83h0Z" transform="translate(-239.56 -206.25)"/><path class="cls-3" d="M572.34,305.24l-.61,0a3.83,3.83,0,0,0-3.77,3.87h0a3.76,3.76,0,0,0,2.6,3.42,3.94,3.94,0,0,0,1.38.22l.61,0a4,4,0,0,0,1.41-.31,3.77,3.77,0,0,0,2.36-3.55A3.83,3.83,0,0,0,572.34,305.24Z" transform="translate(-239.56 -206.25)"/><path class="cls-3" d="M597.56,307.81a3.29,3.29,0,0,0-2.84-3.24,2.85,2.85,0,0,0-.39,0l-3.32.1v-.16l-.17.16-7,.2a2.9,2.9,0,0,0-.57.08,3.31,3.31,0,0,0-2.46,3.37l0,.78a3.34,3.34,0,0,0,2.2,3.09l.13.05.26,0,.23,0,.15,0,.09,0h.25l8-.23h0l2.51-.07a2.9,2.9,0,0,0,.64-.09,3.33,3.33,0,0,0,2.39-3.36Z" transform="translate(-239.56 -206.25)"/><path class="cls-3" d="M601.22,292.32a3.58,3.58,0,0,0-3.85-3.25l-3.16.09-.14,0-3.46.11-17.48.54h0l-2.32.07a3.52,3.52,0,0,0-3.18,3.42l0,.78a3.58,3.58,0,0,0,3.85,3.25l20.47-.6,5.62-.17a3.59,3.59,0,0,0,3.66-3.47Z" transform="translate(-239.56 -206.25)"/><path class="cls-3" d="M575.2,277.67a3.5,3.5,0,0,0-3-3.12,4.43,4.43,0,0,0-1-.1l-13.16.47h-.08c-28,.81-72.22,2.51-124.3,6.15L417.2,367.8,407,422.65c23.62,6.16,41.55-1.39,45.45-3.26l18.21-100.52c28.67-2.77,56.58-4.45,78.41-5.46,4.32-.2,8.39-.37,12.19-.52a3.38,3.38,0,0,0,1.87-3.17l0-.78a3.29,3.29,0,0,0-2.84-3.24l-31,.8a3.59,3.59,0,0,1-3.69-3.46l0-.51a3.59,3.59,0,0,1,3.46-3.69l28.53-.93h1a9.19,9.19,0,0,0,1.39,0H560a5.1,5.1,0,0,0,2.1-.63h0a2.86,2.86,0,0,0,1.33-2.92l0-.78a3.39,3.39,0,0,0-1.51-2.74h0a3,3,0,0,0-1.3-.48,2.84,2.84,0,0,0-.39,0l-1.65,0-12.83.42a3.59,3.59,0,0,1-3.69-3.46l0-.51a3.59,3.59,0,0,1,3.46-3.69l23.18-.76,2.63-.24h.07l.18,0h.12l.11,0,.47-.1.32-.07a4.2,4.2,0,0,0,1.35-.68,3.17,3.17,0,0,0,1.33-2.63Z" transform="translate(-239.56 -206.25)"/><path class="cls-3" d="M294.29,347.55a3,3,0,0,1-1.28-5.71l2.86-1.34c.76-.36,2-.93,3.62-1.63,4.33-1.93,10.86-4.85,13.94-6.62C315.64,331,321.15,322.3,325,315a3,3,0,1,1,5.31,2.79c-2.06,3.93-9.15,16.94-13.88,19.66-3.34,1.91-10,4.91-14.48,6.89-1.52.68-2.77,1.24-3.51,1.58l-2.86,1.34A3,3,0,0,1,294.29,347.55Z" transform="translate(-239.56 -206.25)"/><path class="cls-3" d="M285.21,353a3,3,0,0,1-1.67-5.5l1.62-1.08a3,3,0,1,1,3.33,5l-1.62,1.08A3,3,0,0,1,285.21,353Z" transform="translate(-239.56 -206.25)"/></svg>